{"scene":0,"asset":{"generator":"ImageToStl.com","version":"2.0"},"scenes":[{"name":"Scene","nodes":[0]}],"nodes":[{"name":"Node0","children":[1]},{"name":"Node1","mesh":0}],"materials":[{"name":"x1","pbrMetallicRoughness":{"baseColorFactor":[0.0,0.0,0.0,1.0],"metallicFactor":0.0,"roughnessFactor":1.0},"doubleSided":true}],"meshes":[{"name":"Mesh0","primitives":[{"indices":2,"material":0,"attributes":{"POSITION":0,"NORMAL":1}}]}],"accessors":[{"bufferView":0,"componentType":5126,"count":109,"type":"VEC3","min":[-1.9391043,-1.040477,-1.0508817],"max":[1.8425722,1.1464133,1.2683903]},{"bufferView":1,"componentType":5126,"count":109,"type":"VEC3"},{"bufferView":2,"componentType":5123,"count":498,"type":"SCALAR"}],"bufferViews":[{"target":34962,"buffer":0,"byteLength":1308,"byteOffset":0},{"target":34962,"buffer":0,"byteLength":1308,"byteOffset":1308},{"target":34963,"buffer":0,"byteLength":996,"byteOffset":2616}],"buffers":[{"byteLength":3612,"uri":"data:application/octet-stream;base64,"}]}